<?xml version="1.0" standalone="no"?>
<!DOCTYPE svg PUBLIC "-//W3C//DTD SVG 20010904//EN"
 "http://www.w3.org/TR/2001/REC-SVG-20010904/DTD/svg10.dtd">
<svg version="1.0" xmlns="http://www.w3.org/2000/svg"
 width="4000.000000pt" height="4000.000000pt" viewBox="0 0 4000.000000 4000.000000"
 preserveAspectRatio="xMidYMid meet">

<g transform="translate(0.000000,4000.000000) scale(0.100000,-0.100000)"
fill="#000000" stroke="none">
<path d="M19185 37149 c-785 -36 -1749 -155 -2514 -310 -651 -132 -1121 -256
-1925 -509 -1531 -481 -3247 -1353 -4556 -2314 -883 -647 -1467 -1150 -2205
-1897 -384 -389 -722 -764 -963 -1069 -33 -41 -108 -133 -166 -205 -111 -136
-457 -589 -560 -735 -108 -152 -438 -655 -541 -822 -307 -503 -348 -572 -497
-838 -590 -1051 -1138 -2352 -1463 -3474 -111 -382 -219 -785 -258 -956 -58
-254 -90 -405 -132 -615 -46 -224 -61 -301 -71 -345 -23 -110 -112 -703 -129
-855 -3 -33 -10 -96 -16 -140 -19 -166 -39 -366 -54 -550 -8 -104 -17 -206
-20 -225 -3 -19 -9 -138 -15 -265 -5 -126 -12 -261 -15 -300 -2 -38 -6 -268
-9 -510 -4 -449 3 -810 23 -1150 7 -104 16 -266 21 -360 5 -93 16 -231 24
-305 25 -220 55 -494 71 -660 9 -85 25 -198 35 -250 11 -52 31 -171 45 -265
14 -93 38 -237 54 -320 16 -82 32 -170 35 -195 15 -105 148 -698 215 -960 323
-1258 722 -2345 1275 -3475 737 -1504 1728 -2957 2835 -4155 460 -497 1064
-1078 1559 -1498 86 -73 180 -152 207 -176 264 -225 991 -770 1295 -970 464
-307 571 -376 615 -401 28 -15 91 -54 140 -85 50 -32 117 -72 150 -90 33 -19
114 -66 180 -105 66 -40 154 -90 195 -112 41 -22 104 -56 140 -76 198 -109
818 -420 1015 -510 55 -25 154 -68 220 -97 66 -28 171 -74 234 -102 167 -73
580 -235 781 -307 96 -35 209 -76 250 -91 81 -30 319 -107 680 -219 906 -280
2225 -537 3195 -621 589 -51 1010 -70 1531 -70 305 0 881 18 1119 35 885 63
1879 214 2675 406 118 28 244 58 280 66 150 35 971 279 1220 364 1027 348
2031 806 3012 1373 752 434 1639 1062 2337 1655 629 534 1428 1325 1826 1806
27 33 72 85 100 115 92 103 503 616 631 790 39 52 116 156 171 230 90 121 182
257 411 605 39 61 113 169 162 240 50 72 117 175 149 230 32 55 85 143 118
195 190 300 644 1146 788 1470 26 58 75 164 110 235 131 269 370 848 520 1260
20 55 54 147 75 205 111 304 317 966 400 1285 23 88 48 180 55 205 48 163 153
620 214 930 101 518 155 848 211 1290 11 91 29 224 40 295 19 130 23 166 59
640 45 571 53 1855 16 2325 -8 107 -22 276 -30 375 -8 99 -17 223 -20 275 -3
52 -10 129 -15 170 -6 41 -26 208 -46 370 -19 162 -41 333 -49 380 -8 47 -28
171 -45 275 -41 259 -100 573 -150 795 -23 102 -52 237 -66 300 -125 586 -478
1740 -706 2309 -38 97 -86 219 -105 271 -30 78 -253 599 -358 835 -300 672
-930 1794 -1353 2410 -41 61 -109 160 -150 220 -304 445 -840 1133 -1176 1509
-39 44 -95 107 -125 140 -371 414 -1036 1078 -1401 1398 -227 199 -766 643
-865 713 -16 11 -40 30 -53 43 -14 12 -28 22 -33 22 -4 0 -14 6 -21 13 -11 11
-103 78 -174 127 -12 8 -57 40 -99 70 -43 30 -108 75 -144 100 -36 26 -95 67
-131 93 -82 59 -509 344 -573 383 -50 30 -82 50 -242 149 -104 64 -148 97
-126 93 7 -2 16 3 18 10 3 6 -2 12 -10 12 -9 0 -17 3 -19 8 -1 4 -59 40 -128
81 -69 41 -141 84 -160 96 -19 12 -66 39 -105 60 -38 20 -104 57 -145 81 -41
23 -97 53 -125 65 -27 12 -113 60 -190 107 -204 123 -791 411 -1225 599 -558
243 -1431 559 -1976 717 -455 131 -921 245 -1350 330 -614 122 -1437 232
-2059 276 -82 6 -215 15 -295 21 -191 14 -1342 20 -1585 8z m8260 -2017 c-3
-3 -11 0 -18 7 -9 10 -8 11 6 5 10 -3 15 -9 12 -12z m71 -26 c10 -8 16 -17 13
-21 -4 -3 -13 0 -20 8 -8 8 -21 16 -29 20 -13 5 -13 6 1 6 8 1 24 -5 35 -13z
m88 -46 c14 -5 26 -14 26 -20 0 -6 -12 -4 -30 5 -44 23 -42 33 4 15z m94 -54
c39 -19 153 -81 244 -132 11 -7 25 -17 31 -24 11 -11 -77 33 -213 107 -120 66
-163 99 -62 49z m352 -193 c27 -16 50 -31 50 -36 0 -8 -64 23 -95 47 -31 24
-10 19 45 -11z m85 -53 c3 -5 2 -10 -4 -10 -5 0 -13 5 -16 10 -3 6 -2 10 4 10
5 0 13 -4 16 -10z m65 -35 c19 -14 31 -25 27 -25 -3 0 -23 11 -43 25 -20 14
-33 25 -27 25 5 0 24 -11 43 -25z m225 15 c3 -6 -1 -7 -9 -4 -18 7 -21 14 -7
14 6 0 13 -4 16 -10z m59 -25 c25 -19 16 -19 -20 0 -16 8 -22 15 -14 15 8 -1
24 -7 34 -15z m-27 -142 c35 -21 59 -39 54 -41 -12 -4 -117 54 -126 69 -11 17
7 10 72 -28z m100 -70 c-8 -7 -37 9 -31 19 3 5 12 4 20 -3 8 -6 13 -14 11 -16z
m64 -39 c9 -11 2 -9 -18 6 -18 13 -33 25 -33 27 0 8 38 -17 51 -33z m-8780
-8850 c876 -74 1741 -371 2500 -857 160 -102 346 -233 369 -257 3 -3 34 -28
70 -55 36 -27 94 -74 130 -104 36 -29 87 -72 115 -95 173 -142 547 -524 493
-503 -26 9 -30 -8 -8 -28 11 -10 20 -22 20 -27 0 -5 7 -16 15 -25 9 -8 19 -28
22 -44 3 -16 10 -29 15 -29 5 0 7 -4 4 -9 -5 -7 31 -54 86 -112 10 -10 33 -40
51 -66 67 -96 197 -279 227 -320 17 -24 33 -50 37 -59 3 -9 15 -27 27 -39 12
-13 30 -40 41 -61 11 -21 44 -79 74 -129 57 -95 164 -298 196 -375 11 -25 22
-47 25 -50 9 -9 40 -80 40 -94 0 -7 9 -21 20 -31 12 -10 19 -24 16 -31 -3 -7
-1 -14 4 -16 5 -2 10 -10 12 -18 2 -8 6 -17 9 -20 15 -11 59 -132 53 -142 -4
-6 -3 -8 3 -5 5 3 20 -27 33 -66 13 -40 27 -76 31 -82 3 -5 23 -64 43 -130 21
-66 44 -136 51 -155 19 -50 65 -222 65 -243 0 -10 4 -15 10 -12 5 3 9 -2 8
-12 -4 -25 32 -173 41 -173 4 0 5 -16 3 -36 -3 -24 -1 -34 6 -30 6 4 8 -2 4
-16 -4 -15 -2 -19 7 -13 10 6 11 0 6 -25 -5 -24 -4 -31 5 -25 9 5 10 1 5 -14
-8 -27 3 -83 16 -75 5 3 9 -9 9 -26 0 -18 -4 -29 -10 -25 -6 3 -7 -1 -4 -9 3
-9 11 -13 16 -10 7 4 8 -5 3 -26 -5 -24 -4 -31 5 -25 8 5 10 -3 5 -32 -5 -29
-4 -35 5 -23 9 12 10 2 6 -40 -4 -40 -3 -50 4 -35 7 15 8 9 4 -24 -5 -33 -3
-42 6 -36 9 6 10 -3 5 -34 -5 -29 -3 -41 5 -41 9 0 10 -16 5 -60 -5 -44 -4
-60 5 -60 9 0 11 -12 6 -41 -4 -27 -3 -38 4 -34 8 5 9 -22 6 -87 -4 -65 -3
-85 4 -68 7 18 8 2 4 -52 -4 -48 -2 -78 4 -78 6 0 9 -104 9 -275 -1 -151 -5
-275 -9 -275 -5 0 -6 -35 -3 -77 5 -59 4 -74 -5 -63 -8 11 -10 0 -6 -50 4 -47
3 -60 -4 -45 -7 15 -9 -1 -6 -55 4 -53 2 -68 -4 -50 -7 18 -9 9 -6 -38 3 -39
0 -60 -6 -56 -6 4 -7 -12 -4 -42 4 -38 3 -43 -4 -24 -7 19 -9 12 -6 -33 3 -38
1 -55 -6 -51 -7 4 -8 -8 -4 -37 6 -34 5 -41 -4 -29 -9 12 -10 8 -6 -18 4 -23
2 -31 -6 -26 -8 5 -9 -3 -5 -30 4 -25 2 -34 -5 -30 -7 5 -9 -4 -6 -24 3 -19 0
-29 -5 -25 -6 4 -8 -6 -4 -26 4 -18 3 -30 -2 -26 -13 7 -24 -49 -16 -77 5 -19
4 -20 -5 -8 -9 12 -11 9 -8 -17 3 -19 0 -30 -5 -26 -6 4 -8 -6 -4 -26 5 -22 3
-30 -4 -25 -8 5 -10 -3 -7 -24 3 -18 0 -29 -5 -25 -6 4 -8 -5 -5 -20 3 -15 1
-24 -3 -21 -11 6 -23 -62 -13 -77 5 -8 3 -10 -6 -4 -10 6 -12 1 -8 -18 3 -15
1 -24 -3 -21 -8 5 -13 -19 -12 -53 1 -7 -3 -10 -8 -7 -5 3 -9 -4 -9 -15 0 -10
-13 -58 -30 -104 -16 -47 -30 -94 -30 -106 0 -11 -4 -23 -10 -26 -5 -3 -10
-15 -10 -26 0 -10 -5 -19 -11 -19 -5 0 -8 -4 -5 -9 8 -12 -14 -71 -26 -71 -5
0 -6 -9 -3 -20 4 -11 2 -20 -4 -20 -6 0 -8 -7 -5 -15 4 -8 1 -15 -5 -15 -6 0
-8 -7 -5 -15 4 -8 1 -15 -6 -15 -6 0 -8 -4 -5 -10 3 -5 1 -10 -5 -10 -7 0 -10
-7 -6 -15 3 -8 1 -15 -5 -15 -6 0 -9 -7 -5 -15 3 -8 1 -15 -5 -15 -6 0 -7 -4
-4 -10 3 -5 2 -10 -4 -10 -6 0 -7 -7 -4 -17 4 -10 2 -14 -4 -10 -13 8 -26 -20
-16 -35 4 -7 1 -8 -7 -3 -10 6 -12 4 -7 -9 4 -9 3 -15 -2 -12 -13 8 -23 -23
-15 -47 4 -12 2 -17 -4 -13 -13 8 -23 -19 -15 -39 3 -10 0 -15 -8 -13 -9 2
-14 -5 -13 -19 0 -12 -4 -19 -9 -16 -6 4 -8 -1 -4 -11 5 -11 3 -15 -5 -10 -8
5 -9 2 -5 -10 5 -11 3 -15 -5 -10 -8 5 -9 2 -5 -10 4 -9 3 -14 -2 -11 -12 7
-24 -31 -15 -46 5 -8 3 -9 -6 -4 -10 6 -12 4 -7 -9 4 -9 3 -15 -2 -12 -4 3
-27 -34 -50 -82 -50 -103 -76 -151 -91 -166 -5 -5 -10 -18 -10 -27 0 -9 -6
-22 -14 -28 -8 -7 -18 -25 -21 -41 -3 -16 -13 -31 -21 -34 -9 -3 -12 -10 -9
-16 3 -5 1 -10 -5 -10 -6 0 -9 -4 -5 -9 3 -6 -3 -14 -12 -20 -10 -6 -14 -11
-9 -11 6 0 1 -7 -10 -16 -10 -8 -12 -12 -4 -8 8 4 3 -4 -12 -19 -29 -27 -37
-43 -15 -32 6 4 3 -1 -7 -9 -11 -9 -16 -16 -11 -16 5 0 0 -7 -11 -16 -10 -8
-12 -12 -4 -8 8 4 0 -6 -17 -23 -30 -28 -38 -43 -34 -65 0 -5 -4 -8 -10 -8 -5
0 -7 -5 -4 -10 4 -6 1 -9 -7 -8 -7 2 -12 -5 -12 -14 1 -10 -2 -16 -7 -15 -4 1
-20 -17 -36 -40 -15 -23 -54 -81 -87 -130 -32 -48 -69 -98 -82 -109 -13 -12
-24 -26 -24 -31 0 -6 -10 -18 -22 -27 -13 -9 -16 -14 -8 -11 8 4 2 -6 -15 -20
-16 -15 -23 -24 -15 -20 8 4 -4 -10 -28 -31 -24 -22 -45 -48 -46 -59 -2 -11
-8 -20 -14 -20 -17 0 -81 -78 -75 -90 4 -5 3 -7 -2 -3 -9 8 -42 -31 -37 -45 1
-4 -4 -6 -10 -5 -7 2 -12 -3 -10 -10 1 -8 -2 -11 -7 -8 -5 3 -15 -2 -22 -11
-12 -14 -12 -16 1 -8 8 4 4 -3 -10 -17 -14 -14 -45 -46 -69 -71 -24 -26 -48
-44 -52 -41 -5 3 -6 -1 -3 -9 3 -9 -3 -17 -16 -20 -12 -3 -19 -10 -16 -15 3
-5 -2 -16 -11 -23 -14 -12 -16 -12 -8 0 5 9 -4 6 -22 -7 -35 -25 -59 -52 -47
-52 5 0 -2 -6 -16 -13 -14 -8 -24 -19 -22 -25 1 -7 -5 -12 -14 -12 -9 0 -12
-5 -8 -12 4 -7 3 -10 -1 -5 -10 9 -45 -21 -45 -40 0 -7 -6 -13 -14 -13 -7 0
-21 -11 -30 -25 -9 -14 -22 -23 -28 -19 -6 4 -8 3 -4 -4 3 -6 -8 -21 -26 -33
-18 -13 -41 -32 -50 -42 -9 -10 -21 -16 -26 -13 -5 3 -22 -9 -38 -27 l-29 -32
35 30 c24 21 29 23 15 6 -11 -13 -33 -33 -50 -44 -27 -19 -29 -20 -15 -2 12
16 9 15 -15 -4 -16 -12 -30 -27 -30 -32 0 -5 -2 -8 -5 -7 -13 4 -50 -24 -44
-34 4 -6 3 -8 -3 -5 -6 4 -24 -3 -39 -15 -16 -13 -35 -27 -43 -33 -7 -5 -27
-22 -43 -37 -16 -16 -34 -28 -39 -28 -5 0 -9 -4 -9 -10 0 -5 -6 -10 -12 -11
-7 0 -33 -16 -58 -35 -25 -18 -56 -39 -69 -44 -13 -6 -31 -18 -38 -28 -10 -12
-12 -12 -8 -2 6 13 5 13 -7 0 -7 -8 -25 -21 -40 -27 -16 -7 -28 -17 -28 -23 0
-6 -5 -8 -10 -5 -6 3 -13 -1 -16 -9 -3 -9 -10 -14 -14 -11 -4 3 -11 -2 -14
-11 -3 -8 -10 -12 -16 -9 -13 8 -52 -19 -42 -29 4 -4 3 -7 -3 -6 -21 5 -36 0
-30 -10 3 -6 -1 -7 -9 -4 -9 4 -18 -1 -22 -10 -3 -9 -10 -13 -15 -10 -5 3 -9
0 -9 -6 0 -6 -4 -9 -9 -6 -13 9 -42 -4 -35 -15 3 -5 2 -8 -3 -7 -14 4 -53 -13
-49 -21 3 -4 0 -8 -7 -8 -7 0 -95 -41 -197 -92 -102 -51 -214 -104 -249 -117
-36 -13 -70 -29 -78 -35 -7 -6 -13 -8 -13 -5 0 4 -12 0 -27 -8 -16 -9 -47 -20
-70 -26 -24 -6 -43 -15 -43 -20 0 -5 -6 -7 -14 -4 -8 3 -17 1 -21 -5 -3 -6
-14 -11 -24 -11 -28 0 -102 -36 -93 -45 4 -5 1 -5 -6 -1 -11 6 -149 -30 -242
-64 -40 -15 -257 -69 -360 -91 -333 -69 -645 -111 -905 -120 -225 -9 -763 3
-786 17 -3 1 -55 8 -115 14 -340 34 -778 136 -1144 265 -52 19 -104 35 -115
37 -11 2 -23 7 -26 11 -3 4 -16 9 -27 10 -12 1 -22 5 -22 9 0 4 -8 8 -17 8
-10 0 -36 9 -58 19 -22 11 -88 41 -148 66 -114 49 -396 191 -485 244 -29 17
-54 31 -56 31 -18 0 -379 235 -531 345 -33 25 -71 52 -85 62 -38 27 -136 105
-288 231 -52 42 -103 84 -115 92 -12 9 -45 38 -73 65 -27 28 -66 64 -85 81
-80 73 -339 348 -407 432 -19 23 -45 53 -58 67 -35 37 -227 293 -243 324 -8
14 -31 47 -52 74 -21 26 -41 56 -44 67 -4 11 -10 20 -15 20 -5 0 -11 8 -15 19
-3 10 -17 31 -30 47 -14 16 -39 54 -55 84 -17 30 -39 69 -49 85 -47 78 -201
355 -201 363 0 4 -32 79 -71 167 -39 88 -77 178 -85 200 -8 22 -21 54 -28 70
-31 70 -104 273 -118 330 -5 21 -15 53 -23 70 -17 39 -84 301 -135 530 -51
229 -88 523 -115 910 -9 122 -5 633 5 825 11 189 23 318 42 425 5 33 16 110
23 170 8 61 16 121 19 135 3 14 15 68 27 120 11 52 24 111 29 130 14 63 135
427 213 640 38 104 144 331 159 341 6 3 9 8 9 10 -2 12 13 49 19 49 4 0 10 10
14 23 16 62 275 530 315 567 9 9 17 22 19 30 2 8 10 20 18 26 14 11 64 81 64
90 0 21 277 396 319 431 14 13 26 27 26 32 0 5 13 23 28 39 16 17 40 42 53 56
13 14 24 30 24 36 0 6 5 8 10 5 6 -3 10 -2 10 2 0 22 268 305 281 297 5 -3 9
2 9 10 0 9 4 16 9 16 6 0 37 27 69 60 33 33 63 60 66 60 3 0 33 27 66 60 33
33 64 60 68 60 4 0 24 16 45 36 20 19 37 32 37 28 0 -3 7 -1 15 6 8 7 12 16 9
21 -3 5 -1 8 4 7 6 -2 77 47 159 108 134 101 307 221 358 250 70 39 241 149
247 158 4 6 8 7 8 3 0 -5 15 0 33 11 64 40 435 221 557 272 550 232 1195 383
1825 428 183 13 661 11 836 -4z m4414 -654 c3 -5 1 -10 -4 -10 -6 0 -11 5 -11
10 0 6 2 10 4 10 3 0 8 -4 11 -10z m105 -99 c7 -14 7 -22 -2 -27 -6 -4 -8 -3
-4 4 3 6 -1 18 -10 26 -8 9 -11 16 -5 16 6 0 15 -9 21 -19z m35 -80 c-3 -6
-11 -11 -16 -11 -5 0 -4 6 3 14 14 16 24 13 13 -3z m103 -62 c10 -13 10 -19 0
-27 -10 -8 -13 -3 -14 19 -1 16 -1 28 0 27 1 -2 7 -10 14 -19z m55 -53 c4 -10
1 -13 -7 -10 -8 3 -17 1 -21 -5 -3 -6 -11 -11 -17 -11 -5 0 0 9 13 20 29 24
26 23 32 6z m62 -76 c3 -5 2 -10 -4 -10 -5 0 -13 5 -16 10 -3 6 -2 10 4 10 5
0 13 -4 16 -10z m-1 -44 c-3 -9 -10 -13 -16 -10 -5 3 -4 12 3 20 15 18 22 13
13 -10z m13 -48 c-3 -8 -6 -5 -6 6 -1 11 2 17 5 13 3 -3 4 -12 1 -19z m133
-109 c15 -28 5 -23 -15 7 -9 15 -12 23 -6 20 6 -4 16 -16 21 -27z m1953 -1069
c3 -11 1 -18 -4 -14 -5 3 -9 12 -9 20 0 20 7 17 13 -6z m20 -51 c-4 -13 -9
-17 -15 -11 -11 11 -3 32 12 32 4 0 6 -9 3 -21z m53 -26 c-2 -2 -11 0 -20 3
-14 5 -15 9 -5 15 12 7 34 -10 25 -18z m-106 3 c0 -11 -19 -15 -25 -6 -3 5 1
10 9 10 9 0 16 -2 16 -4z m101 -21 c8 5 9 1 4 -14 -4 -12 -2 -21 4 -21 6 0 11
-4 11 -10 0 -5 -8 -6 -17 -3 -16 6 -16 5 -4 -10 13 -17 15 -16 34 0 11 10 17
12 13 5 -4 -7 0 -19 8 -28 9 -8 16 -26 16 -40 0 -13 4 -24 9 -24 10 0 24 -33
27 -60 2 -27 16 -60 25 -60 5 0 9 -5 9 -11 0 -6 -6 -9 -14 -6 -9 4 -16 -4 -21
-21 l-7 -27 -19 25 c-10 14 -19 30 -19 36 0 12 -22 24 -44 24 -6 0 -12 -9 -12
-19 0 -11 4 -17 9 -14 10 6 38 -17 32 -27 -8 -13 -45 1 -56 21 -5 11 -18 19
-29 19 -21 0 -35 16 -21 24 5 4 12 2 16 -4 3 -5 11 -10 17 -10 7 0 6 6 -2 15
-7 8 -18 15 -25 15 -7 0 -19 8 -26 17 -12 14 -12 16 2 11 15 -6 17 -2 20 35 1
6 -2 21 -6 32 l-8 20 16 -20 c15 -18 16 -18 17 -2 0 16 -10 21 -36 18 -6 -1
-18 6 -25 15 -12 15 -11 16 9 10 23 -8 29 5 16 38 -10 27 -42 13 -57 -24 -4
-10 -6 -8 -6 6 -1 25 50 65 57 45 2 -6 10 -18 18 -25 8 -8 14 -20 14 -26 0 -6
11 -31 24 -55 20 -35 22 -44 10 -49 -8 -3 -14 0 -14 6 0 8 -3 9 -10 2 -8 -8
-7 -19 1 -37 14 -31 24 -34 33 -11 4 11 2 15 -8 11 -8 -3 -17 0 -19 7 -5 13
20 15 39 3 7 -4 11 6 12 28 1 19 -3 37 -8 40 -6 3 -10 15 -10 26 0 21 -16 26
-23 7 -3 -7 -3 6 -1 30 3 32 0 42 -11 42 -17 0 -18 2 -9 24 5 13 10 14 20 5 7
-6 18 -8 25 -4z m-78 -137 c5 -17 -3 -38 -15 -38 -5 0 -6 5 -3 10 4 6 1 17 -5
25 -10 12 -9 15 3 15 8 0 17 -6 20 -12z m57 -152 c0 -3 -4 -8 -10 -11 -5 -3
-10 -1 -10 4 0 6 5 11 10 11 6 0 10 -2 10 -4z m-1015 -27 c-5 -15 -4 -19 4
-15 6 4 11 2 11 -3 0 -6 -4 -11 -9 -11 -5 0 -16 -3 -24 -6 -9 -3 -16 3 -20 16
-5 19 11 33 41 39 2 1 0 -9 -3 -20z m998 -16 c-7 -2 -19 -2 -25 0 -7 3 -2 5
12 5 14 0 19 -2 13 -5z m87 3 c0 -2 -7 -7 -16 -10 -8 -3 -12 -2 -9 4 6 10 25
14 25 6z m107 -27 c1 -22 1 -22 -4 -1 -2 12 -9 22 -14 22 -6 0 -8 -8 -5 -17 7
-23 -8 -48 -23 -39 -17 11 -13 44 7 55 24 15 37 8 39 -20z m-1142 -45 c12 -22
20 -45 18 -51 -2 -6 6 -21 19 -32 19 -18 21 -25 10 -41 -10 -16 -9 -18 4 -13
10 4 15 1 13 -8 -3 -17 11 -52 24 -60 5 -4 4 -15 -3 -29 -13 -25 -4 -43 10
-20 8 13 10 12 10 -2 0 -10 -5 -18 -11 -18 -7 0 -9 -11 -5 -31 5 -27 4 -29
-10 -14 -9 8 -13 22 -10 30 6 16 5 16 -30 20 -32 3 -43 13 -37 35 3 11 -2 27
-11 35 -9 9 -13 22 -9 28 4 7 0 8 -11 4 -13 -5 -17 -3 -13 6 5 13 -9 52 -35
101 -6 12 -6 22 1 29 16 16 13 31 -3 18 -11 -9 -15 -7 -19 11 -4 12 -4 24 -2
27 3 2 5 -1 5 -7 0 -7 7 -12 16 -12 10 0 14 6 11 14 -6 14 16 26 38 22 5 -1
19 -20 30 -42z m1030 16 c3 -6 -1 -7 -9 -4 -18 7 -21 14 -7 14 6 0 13 -4 16
-10z m-980 -320 c-3 -5 -11 -10 -16 -10 -6 0 -7 5 -4 10 3 6 11 10 16 10 6 0
7 -4 4 -10z m20 -20 c3 -5 -3 -10 -15 -10 -12 0 -18 5 -15 10 3 6 10 10 15 10
5 0 12 -4 15 -10z"/>
<path d="M19206 20226 c-94 -34 -171 -97 -223 -182 l-43 -69 0 -116 c0 -101 3
-126 26 -185 49 -131 117 -194 259 -239 103 -33 122 -30 97 15 -15 28 -21 31
-55 27 -25 -4 -48 0 -68 11 -32 19 -39 34 -11 26 9 -3 1 4 -18 14 -50 28 -89
67 -94 94 -35 187 -38 214 -34 293 4 74 8 91 34 127 37 52 122 121 194 156 88
43 156 38 261 -17 60 -31 79 -37 65 -22 -11 11 -49 35 -85 53 -93 44 -206 50
-305 14z"/>
<path d="M26808 23134 c6 -3 12 -14 12 -23 0 -10 3 -21 7 -25 4 -3 8 -14 9
-24 2 -9 8 -18 14 -20 8 -3 7 -8 -1 -18 -14 -17 2 -19 19 -2 8 8 6 18 -10 41
-11 16 -21 39 -22 50 -1 14 -8 23 -21 24 -11 2 -14 0 -7 -3z"/>
<path d="M26803 23024 c-10 -22 -9 -26 10 -33 24 -9 38 -4 20 7 -6 4 -13 17
-14 29 -4 23 -4 22 -16 -3z"/>
<path d="M26855 22960 c3 -5 10 -10 16 -10 5 0 9 5 9 10 0 6 -7 10 -16 10 -8
0 -12 -4 -9 -10z"/>
<path d="M26891 22864 c0 -11 3 -14 6 -6 3 7 2 16 -1 19 -3 4 -6 -2 -5 -13z"/>
<path d="M25740 22832 c1 -17 19 -34 29 -28 17 11 13 23 -9 29 -11 3 -20 2
-20 -1z"/>
<path d="M25728 22788 c-5 -14 25 -70 47 -88 11 -9 18 -8 32 6 12 12 13 16 3
12 -8 -2 -22 2 -31 11 -16 13 -16 17 -3 35 18 26 18 42 0 27 -10 -8 -16 -9
-21 -1 -8 14 -22 13 -27 -2z"/>
<path d="M25840 22639 c0 -5 5 -7 10 -4 6 3 10 8 10 11 0 2 -4 4 -10 4 -5 0
-10 -5 -10 -11z"/>
<path d="M25850 22610 c0 -5 5 -10 10 -10 6 0 10 5 10 10 0 6 -4 10 -10 10 -5
0 -10 -4 -10 -10z"/>
<path d="M25817 22579 c7 -7 15 -10 18 -7 3 3 -2 9 -12 12 -14 6 -15 5 -6 -5z"/>
<path d="M28566 34683 c-13 -14 -4 -24 34 -39 22 -9 40 -20 40 -24 0 -5 10
-12 23 -16 12 -3 30 -13 40 -22 9 -8 17 -10 17 -4 0 6 -18 21 -40 33 -22 13
-40 26 -40 30 0 4 -9 11 -20 14 -11 3 -26 13 -34 20 -7 8 -16 11 -20 8z"/>
<path d="M28730 34576 c0 -2 7 -9 15 -16 13 -11 14 -10 9 4 -5 14 -24 23 -24
12z"/>
</g>
</svg>
